<svg xmlns="http://www.w3.org/2000/svg" version="1.1" xmlns:xlink="http://www.w3.org/1999/xlink" width="1000" height="1000"><metadata><rdf:RDF xmlns:rdf="http://www.w3.org/1999/02/22-rdf-syntax-ns#" xmlns:dc="http://purl.org/dc/elements/1.1/"><rdf:Description><dc:creator>RealFaviconGenerator</dc:creator><dc:source>https://realfavicongenerator.net</dc:source></rdf:Description></rdf:RDF></metadata><style>
    #light-icon {
      display: inline;
    }
    #dark-icon {
      display: none;
    }

    @media (prefers-color-scheme: dark) {
      #light-icon {
        display: none;
      }
      #dark-icon {
        display: inline;
      }
    }
  </style><g id="light-icon"><svg xmlns="http://www.w3.org/2000/svg" version="1.1" xmlns:xlink="http://www.w3.org/1999/xlink" width="1000" height="1000"><g><g transform="matrix(2.857142857142857,0,0,2.857142857142857,47.14285714285711,0)"><svg xmlns="http://www.w3.org/2000/svg" width="317px" height="350px" viewBox="0 0 315.759 349"><path d="M 153.768 72.011 L 173.911 72.011 C 206.034 72.011 232.075 98.052 232.075 130.175 L 232.075 246.817 C 232.075 278.94 206.034 304.981 173.911 304.981 L 153.768 304.981 C 121.645 304.981 95.604 278.94 95.604 246.817 L 95.604 130.175 C 95.604 98.052 121.645 72.011 153.768 72.011 Z" style="stroke-width: 14px; fill: rgb(255, 255, 255); visibility: hidden;"></path><path fill-rule="evenodd" fill="rgb(252, 44, 9)" d="M 230.899 0 C 230.899 0 222.244 75.297 220.084 93.534 C 217.437 88.53 211.692 84.751 205.301 79.77 C 206.206 75.062 206.245 65.019 206.23 65.013 C 206.23 65.013 201.235 73.067 198.349 77.803 C 193.111 72.1 182.548 70.923 182.548 70.923 L 230.899 0 Z M 131.237 15.761 C 131.237 15.761 148.258 56.187 153.932 69.953 C 142.56 71.966 132.279 72.723 124.317 78.774 C 125.961 57.761 131.237 15.761 131.237 15.761 Z M 31.576 38.417 C 57.558 57.459 80.547 75.507 106.529 94.549 C 101.773 99.655 99.996 103.725 98.635 110.31 C 90.084 103.744 84.53 98.175 75.979 91.609 C 83.539 105.789 95.701 130.026 95.701 130.026 C 95.701 130.026 95.742 151.585 95.701 167.457 C 82.217 165.159 56.245 160.562 56.245 160.562 C 56.245 160.562 87.651 183.632 91.767 186.173 C 82.458 186.074 78.461 187.109 74.006 192.084 C 49.34 174.355 24.666 156.62 0 138.891 C 0 138.235 0 137.578 0 136.921 C 28.284 140.204 57.563 144.473 85.847 147.757 C 68.087 111.642 49.336 74.531 31.576 38.417 Z M 231.899 168.442 L 231.899 143.816 C 231.899 143.816 247.682 124.792 256.554 113.28 C 247.674 117.22 240.805 122.146 231.925 126.086 C 231.917 120.135 230.307 115.25 227.978 109.34 C 255.604 97.849 281.225 85.369 308.851 73.878 C 288.132 100.143 244.713 153.667 244.713 153.667 L 315.759 164.502 C 315.759 164.502 273.656 184.861 254.58 194.054 C 251.093 189.713 248.012 186.034 232.859 186.173 C 241.177 182.221 264.448 171.398 264.448 171.398 L 231.899 168.442 Z M 68.085 231.485 C 50.326 230.5 12.828 229.515 12.828 229.515 L 68.085 204.889 C 68.085 204.889 68.085 222.621 68.085 231.485 Z M 258.527 207.844 C 258.527 207.844 285.5 221.636 298.984 228.53 C 298.984 228.858 298.984 229.187 298.984 229.515 C 285.171 229.843 259.514 231.485 259.514 231.485 L 258.527 207.844 Z"></path><path fill-rule="evenodd" d="M219.410,141.690 C211.281,141.346 205.131,139.110 200.1000,143.1000 C196.869,148.890 201.140,152.564 204.349,153.766 C209.369,153.766 214.390,153.766 219.410,153.766 C219.410,159.468 219.410,165.172 219.410,170.874 C211.281,170.531 203.992,169.435 201.336,173.893 C198.680,178.351 200.946,182.463 204.349,182.951 C209.369,182.951 214.390,182.951 219.410,182.951 C219.410,188.988 219.410,195.027 219.410,201.065 C211.281,200.722 207.743,199.349 203.344,202.071 C199.508,204.872 200.960,209.563 203.340,213.141 C208.360,213.141 214.390,213.141 219.410,213.141 C220.348,250.389 214.537,270.313 192.299,283.587 C158.561,303.724 119.491,279.166 110.966,251.383 C110.632,238.637 110.297,225.887 109.962,213.141 C118.092,213.485 125.596,215.546 128.036,210.122 C130.766,204.054 130.148,204.999 126.028,202.071 C121.908,199.143 115.317,201.400 109.962,201.065 C109.962,195.027 109.962,188.988 109.962,182.951 C118.092,183.294 125.344,183.962 128.036,179.931 C130.729,175.901 127.013,174.056 125.024,170.874 C120.004,170.874 114.982,170.874 109.962,170.874 C109.962,165.172 109.962,159.468 109.962,153.766 C118.082,154.090 125.098,154.636 128.036,150.747 C130.975,146.858 128.909,143.792 125.024,141.690 C120.004,141.690 114.982,141.690 109.962,141.690 C107.908,62.432 221.488,61.753 219.410,141.690 ZM165.188,136.658 C156.412,136.990 153.435,141.641 152.135,144.709 C150.834,147.777 154.762,187.906 156.686,202.780 C157.337,207.816 160.104,211.129 164.184,211.129 C168.398,211.129 172.942,208.381 173.565,202.991 C175.919,182.603 179.443,148.986 177.238,144.709 C175.032,140.432 173.965,136.326 165.188,136.658 ZM174.225,332.898 C188.898,332.451 202.621,333.631 211.377,338.936 C212.531,343.850 213.271,346.418 209.369,349.000 C179.249,349.000 149.120,349.000 118.999,349.000 C117.995,347.994 116.991,346.987 115.987,345.981 C116.322,344.304 116.656,342.626 116.991,340.949 C123.549,332.843 140.374,332.500 155.147,332.898 C155.147,328.538 155.147,324.176 155.147,319.816 C117.789,315.736 91.276,290.400 82.851,257.421 C80.455,248.041 80.943,219.850 81.281,210.838 C83.442,203.154 87.848,199.199 95.905,204.084 C96.909,221.526 96.546,246.799 98.917,256.415 C107.697,294.334 164.241,321.330 205.353,291.637 C217.788,282.656 229.086,266.105 232.464,248.364 C232.798,233.605 233.133,218.843 233.468,204.084 C237.487,197.649 244.959,202.800 248.529,205.090 C252.525,272.318 230.423,310.604 174.225,319.816 C174.225,324.176 174.225,328.538 174.225,332.898 ZM152.135,229.243 C151.302,234.979 150.692,246.560 168.201,246.351 C174.726,245.677 181.423,237.619 175.229,226.224 C169.035,214.829 152.968,223.507 152.135,229.243 Z" style="stroke-width: 5px;"></path><path fill-rule="evenodd" stroke="rgb(252, 44, 9)" stroke-linecap="butt" stroke-linejoin="miter" fill="rgb(252, 44, 9)" d="M 150.933 145.239 C 150.996 134.27 178.531 134.613 178.691 145.239 C 179.419 151.665 175.729 195.011 173.139 208.186 C 169.82 213.158 160.052 213.219 156.484 208.186 C 154.762 194.846 150.543 151.034 150.933 145.239 Z M 166.478 222.4 C 175.333 222.605 180.431 229.496 178.691 237.63 C 176.035 249.002 157.533 251.337 152.042 239.66 C 151.029 237.849 148.403 221.981 166.478 222.4 Z" style="stroke-width: 4px;"></path></svg></g></g></svg></g><g id="dark-icon"><svg xmlns="http://www.w3.org/2000/svg" version="1.1" xmlns:xlink="http://www.w3.org/1999/xlink" width="1000" height="1000"><g clip-path="url(#SvgjsClipPath1031)"><rect width="1000" height="1000" fill="#ffffff"></rect><g transform="matrix(2.857142857142857,0,0,2.857142857142857,47.14285714285711,0)"><svg xmlns="http://www.w3.org/2000/svg" width="317px" height="350px" viewBox="0 0 351.924 354.201" xmlns:bx="https://boxy-svg.com"><defs>
    <bx:export>
      <bx:file format="jpeg" path="panicmic-logo-white.jpeg"></bx:file>
      <bx:file format="png" path="panicmic-logo-white.png" excluded="true"></bx:file>
    </bx:export>
    <linearGradient gradientUnits="userSpaceOnUse" x1="175.633" y1="83.909" x2="175.633" y2="350.917" id="gradient-0" gradientTransform="matrix(-0.004494, -0.99999, 0.61459, -0.002762, 40.284972, 383.262956)">
      <stop offset="0" style="stop-color: rgb(142, 142, 142);"></stop>
      <stop offset="0.51" style="stop-color: rgb(69, 69, 69);"></stop>
      <stop offset="0.51" style=""></stop>
      <stop offset="1" style="stop-color: rgb(0% 0% 0%)"></stop>
    </linearGradient>
  <clipPath id="SvgjsClipPath1031"><rect width="1000" height="1000" x="0" y="0" rx="500" ry="500"></rect></clipPath></defs><rect width="351.924" height="354.201" style="stroke-width: 14px; fill: rgb(255, 255, 255);" id="object-0"></rect><path d="M 164.41 73.928 L 184.553 73.928 C 216.676 73.928 242.717 99.969 242.717 132.092 L 242.717 248.734 C 242.717 280.857 216.676 306.898 184.553 306.898 L 164.41 306.898 C 132.287 306.898 106.246 280.857 106.246 248.734 L 106.246 132.092 C 106.246 99.969 132.287 73.928 164.41 73.928 Z" style="stroke-width: 14px; fill: rgb(255, 255, 255); visibility: hidden;"></path><path fill-rule="evenodd" fill="rgb(252, 44, 9)" d="M 241.541 1.917 C 241.541 1.917 232.886 77.214 230.726 95.451 C 228.079 90.447 222.334 86.668 215.943 81.687 C 216.848 76.979 216.887 66.936 216.872 66.93 C 216.872 66.93 211.877 74.984 208.991 79.72 C 203.753 74.017 193.19 72.84 193.19 72.84 L 241.541 1.917 Z M 141.879 17.678 C 141.879 17.678 158.9 58.104 164.574 71.87 C 153.202 73.883 142.921 74.64 134.959 80.691 C 136.603 59.678 141.879 17.678 141.879 17.678 Z M 42.218 40.334 C 68.2 59.376 91.189 77.424 117.171 96.466 C 112.415 101.572 110.638 105.642 109.277 112.227 C 100.726 105.661 95.172 100.092 86.621 93.526 C 94.181 107.706 106.343 131.943 106.343 131.943 C 106.343 131.943 106.384 153.502 106.343 169.374 C 92.859 167.076 66.887 162.479 66.887 162.479 C 66.887 162.479 98.293 185.549 102.409 188.09 C 93.1 187.991 89.103 189.026 84.648 194.001 C 59.982 176.272 35.308 158.537 10.642 140.808 C 10.642 140.152 10.642 139.495 10.642 138.838 C 38.926 142.121 68.205 146.39 96.489 149.674 C 78.729 113.559 59.978 76.448 42.218 40.334 Z M 242.541 170.359 L 242.541 145.733 C 242.541 145.733 258.324 126.709 267.196 115.197 C 258.316 119.137 251.447 124.063 242.567 128.003 C 242.559 122.052 240.949 117.167 238.62 111.257 C 266.246 99.766 291.867 87.286 319.493 75.795 C 298.774 102.06 255.355 155.584 255.355 155.584 L 326.401 166.419 C 326.401 166.419 284.298 186.778 265.222 195.971 C 261.735 191.63 258.654 187.951 243.501 188.09 C 251.819 184.138 275.09 173.315 275.09 173.315 L 242.541 170.359 Z M 78.727 233.402 C 60.968 232.417 23.47 231.432 23.47 231.432 L 78.727 206.806 C 78.727 206.806 78.727 224.538 78.727 233.402 Z M 269.169 209.761 C 269.169 209.761 296.142 223.553 309.626 230.447 C 309.626 230.775 309.626 231.104 309.626 231.432 C 295.813 231.76 270.156 233.402 270.156 233.402 L 269.169 209.761 Z"></path><path fill-rule="evenodd" d="M 230.052 143.607 C 221.923 143.263 215.779 141.247 210.742 145.017 C 207.511 150.807 211.782 154.481 214.991 155.683 C 220.011 155.683 225.032 155.683 230.052 155.683 C 230.052 161.385 230.052 167.089 230.052 172.791 C 221.923 172.448 214.634 171.352 211.978 175.81 C 209.322 180.268 211.588 184.38 214.991 184.868 C 220.011 184.868 225.032 184.868 230.052 184.868 C 230.052 190.905 230.052 196.944 230.052 202.982 C 221.923 202.639 218.385 201.266 213.986 203.988 C 210.15 206.789 211.602 211.48 213.982 215.058 C 219.002 215.058 225.032 215.058 230.052 215.058 C 230.99 252.306 225.179 272.23 202.941 285.504 C 169.203 305.641 130.133 281.083 121.608 253.3 C 121.274 240.554 120.939 227.804 120.604 215.058 C 128.734 215.402 136.238 217.463 138.678 212.039 C 141.408 205.971 140.79 206.916 136.67 203.988 C 132.55 201.06 125.959 203.317 120.604 202.982 C 120.604 196.944 120.604 190.905 120.604 184.868 C 128.734 185.211 135.986 185.879 138.678 181.848 C 141.371 177.818 140.353 174.505 135.666 172.791 C 130.646 172.791 125.624 172.791 120.604 172.791 C 120.604 167.089 120.604 161.385 120.604 155.683 C 128.724 156.007 135.74 156.553 138.678 152.664 C 141.617 148.775 139.551 145.709 135.666 143.607 C 130.646 143.607 125.624 143.607 120.604 143.607 C 118.55 64.349 232.13 63.67 230.052 143.607 Z M 175.83 138.575 C 167.054 138.907 164.077 143.558 162.777 146.626 C 161.476 149.694 165.404 189.823 167.328 204.697 C 167.979 209.733 170.746 213.046 174.826 213.046 C 179.04 213.046 183.584 210.298 184.207 204.908 C 186.561 184.52 190.085 150.903 187.88 146.626 C 185.674 142.349 184.607 138.243 175.83 138.575 Z M 184.867 334.815 C 199.54 334.368 213.263 335.548 222.019 340.853 C 223.173 345.767 223.913 348.335 220.011 350.917 C 189.891 350.917 159.762 350.917 129.641 350.917 C 128.637 349.911 127.633 348.904 126.629 347.898 C 126.964 346.221 127.298 344.543 127.633 342.866 C 134.191 334.76 151.016 334.417 165.789 334.815 C 165.789 330.455 165.789 326.093 165.789 321.733 C 128.431 317.653 101.918 292.317 93.493 259.338 C 91.097 249.958 91.585 221.767 91.923 212.755 C 94.084 205.071 98.49 201.116 106.547 206.001 C 107.551 223.443 107.188 248.716 109.559 258.332 C 118.339 296.251 174.883 323.247 215.995 293.554 C 228.43 284.573 239.437 268.22 242.106 250.281 C 245.74 233.247 243.775 220.76 244.11 206.001 C 248.129 199.566 255.601 204.717 259.171 207.007 C 263.167 274.235 241.065 312.521 184.867 321.733 C 184.867 326.093 184.867 330.455 184.867 334.815 Z M 162.777 231.16 C 161.944 236.896 161.334 248.477 178.843 248.268 C 185.368 247.594 192.065 239.536 185.871 228.141 C 179.677 216.746 163.61 225.424 162.777 231.16 Z" style="stroke-width: 5px; fill: url(&quot;#gradient-0&quot;);"></path><path fill-rule="evenodd" stroke="rgb(252, 44, 9)" stroke-linecap="butt" stroke-linejoin="miter" fill="rgb(252, 44, 9)" d="M 161.575 147.156 C 161.638 136.187 189.173 136.53 189.333 147.156 C 190.061 153.582 186.371 196.928 183.781 210.103 C 180.462 215.075 170.694 215.136 167.126 210.103 C 165.404 196.763 161.185 152.951 161.575 147.156 Z M 177.12 224.317 C 185.975 224.522 191.073 231.413 189.333 239.547 C 186.677 250.919 168.175 253.254 162.684 241.577 C 161.671 239.766 159.045 223.898 177.12 224.317 Z" style="stroke-width: 4px;"></path></svg></g></g></svg></g></svg>